<svg xmlns="http://www.w3.org/2000/svg" xmlns:xlink="http://www.w3.org/1999/xlink" width="1080" zoomAndPan="magnify" viewBox="0 0 810 809.999993" height="1080" preserveAspectRatio="xMidYMid meet" version="1.0"><defs><clipPath id="27ce489161"><path d="M 6.347656 6.40625 L 784.8125 6.40625 L 784.8125 638.910156 L 6.347656 638.910156 Z M 6.347656 6.40625 " clip-rule="nonzero"/></clipPath><clipPath id="c871cc7a8e"><path d="M 247.53125 115.5 L 543.6875 115.5 L 543.6875 277 L 247.53125 277 Z M 247.53125 115.5 " clip-rule="nonzero"/></clipPath><clipPath id="94caeede1e"><path d="M 247.53125 251 L 543.6875 251 L 543.6875 411.65625 L 247.53125 411.65625 Z M 247.53125 251 " clip-rule="nonzero"/></clipPath><clipPath id="3a3a0060d0"><rect x="0" width="792" y="0" height="646"/></clipPath></defs><rect x="-81" width="972" fill="#ffffff" y="-80.999999" height="971.999992" fill-opacity="1"/><rect x="-81" width="972" fill="#0b0c10" y="-80.999999" height="971.999992" fill-opacity="1"/><g transform="matrix(1, 0, 0, 1, 9, 82)"><g clip-path="url(#3a3a0060d0)"><g clip-path="url(#27ce489161)"><path fill="#ffffff" d="M 736.929688 6.40625 L 55.058594 6.40625 C 28.269531 6.40625 6.351562 28.324219 6.351562 55.113281 L 6.351562 469.105469 C 6.351562 495.890625 28.269531 517.808594 55.058594 517.808594 L 371.640625 517.808594 L 371.640625 590.867188 L 249.878906 590.867188 C 236.484375 590.867188 225.527344 601.824219 225.527344 615.21875 C 225.527344 628.613281 236.484375 639.570312 249.878906 639.570312 L 542.109375 639.570312 C 555.503906 639.570312 566.460938 628.613281 566.460938 615.21875 C 566.460938 601.824219 555.503906 590.867188 542.109375 590.867188 L 420.34375 590.867188 L 420.34375 517.808594 L 736.929688 517.808594 C 763.714844 517.808594 785.632812 495.890625 785.632812 469.105469 L 785.632812 55.113281 C 785.632812 28.324219 763.714844 6.40625 736.929688 6.40625 Z M 736.929688 469.105469 L 55.058594 469.105469 L 55.058594 55.113281 L 736.929688 55.113281 Z M 736.929688 469.105469 " fill-opacity="1" fill-rule="nonzero"/></g><g clip-path="url(#c871cc7a8e)"><path fill="#ffffff" d="M 531.210938 276.566406 L 260.140625 276.566406 C 253.207031 276.566406 247.53125 270.894531 247.53125 263.957031 L 247.53125 128.421875 C 247.53125 121.488281 253.207031 115.816406 260.140625 115.816406 L 531.839844 115.816406 C 538.773438 115.816406 544.449219 121.488281 544.449219 128.421875 L 544.449219 263.957031 C 543.820312 270.894531 538.144531 276.566406 531.210938 276.566406 Z M 272.117188 251.351562 L 519.234375 251.351562 L 519.234375 140.402344 L 272.117188 140.402344 Z M 272.117188 251.351562 " fill-opacity="1" fill-rule="nonzero"/></g><g clip-path="url(#94caeede1e)"><path fill="#ffffff" d="M 531.210938 412.101562 L 260.140625 412.101562 C 253.207031 412.101562 247.53125 406.425781 247.53125 399.492188 L 247.53125 263.957031 C 247.53125 257.023438 253.207031 251.351562 260.140625 251.351562 L 531.839844 251.351562 C 538.773438 251.351562 544.449219 257.023438 544.449219 263.957031 L 544.449219 399.492188 C 543.820312 406.425781 538.144531 412.101562 531.210938 412.101562 Z M 272.117188 387.515625 L 519.234375 387.515625 L 519.234375 276.566406 L 272.117188 276.566406 Z M 272.117188 387.515625 " fill-opacity="1" fill-rule="nonzero"/></g><path fill="#ffffff" d="M 430.347656 208.484375 L 361.003906 208.484375 C 354.070312 208.484375 348.394531 202.808594 348.394531 195.875 C 348.394531 188.941406 354.070312 183.269531 361.003906 183.269531 L 429.714844 183.269531 C 436.652344 183.269531 442.324219 188.941406 442.324219 195.875 C 442.324219 202.808594 436.652344 208.484375 430.347656 208.484375 Z M 430.347656 208.484375 " fill-opacity="1" fill-rule="nonzero"/><path fill="#ffffff" d="M 430.347656 344.019531 L 361.003906 344.019531 C 354.070312 344.019531 348.394531 338.34375 348.394531 331.410156 C 348.394531 324.476562 354.070312 318.804688 361.003906 318.804688 L 429.714844 318.804688 C 436.652344 318.804688 442.324219 324.476562 442.324219 331.410156 C 442.324219 338.34375 436.652344 344.019531 430.347656 344.019531 Z M 430.347656 344.019531 " fill-opacity="1" fill-rule="nonzero"/></g></g></svg>