<svg xmlns="http://www.w3.org/2000/svg" xmlns:xlink="http://www.w3.org/1999/xlink" width="1080" zoomAndPan="magnify" viewBox="0 0 810 809.999993" height="1080" preserveAspectRatio="xMidYMid meet" version="1.0"><defs><clipPath id="9a2e502fa9"><path d="M 0.347656 0.40625 L 778.8125 0.40625 L 778.8125 632.910156 L 0.347656 632.910156 Z M 0.347656 0.40625 " clip-rule="nonzero"/></clipPath><clipPath id="94edf90a93"><path d="M 241.53125 109.5 L 537.6875 109.5 L 537.6875 271 L 241.53125 271 Z M 241.53125 109.5 " clip-rule="nonzero"/></clipPath><clipPath id="952d67e0b6"><path d="M 241.53125 245 L 537.6875 245 L 537.6875 405.65625 L 241.53125 405.65625 Z M 241.53125 245 " clip-rule="nonzero"/></clipPath><clipPath id="2b7187db07"><rect x="0" width="782" y="0" height="636"/></clipPath></defs><rect x="-81" width="972" fill="#ffffff" y="-80.999999" height="971.999992" fill-opacity="1"/><rect x="-81" width="972" fill="#ffffff" y="-80.999999" height="971.999992" fill-opacity="1"/><g transform="matrix(1, 0, 0, 1, 15, 88)"><g clip-path="url(#2b7187db07)"><g clip-path="url(#9a2e502fa9)"><path fill="#000000" d="M 730.152344 0.40625 L 49.007812 0.40625 C 22.246094 0.40625 0.351562 22.300781 0.351562 49.0625 L 0.351562 462.621094 C 0.351562 489.382812 22.246094 511.277344 49.007812 511.277344 L 365.253906 511.277344 L 365.253906 584.257812 L 243.621094 584.257812 C 230.238281 584.257812 219.292969 595.203125 219.292969 608.585938 C 219.292969 621.964844 230.238281 632.910156 243.621094 632.910156 L 535.539062 632.910156 C 548.917969 632.910156 559.867188 621.964844 559.867188 608.585938 C 559.867188 595.203125 548.917969 584.257812 535.539062 584.257812 L 413.90625 584.257812 L 413.90625 511.277344 L 730.152344 511.277344 C 756.914062 511.277344 778.808594 489.382812 778.808594 462.621094 L 778.808594 49.0625 C 778.808594 22.300781 756.914062 0.40625 730.152344 0.40625 Z M 730.152344 462.621094 L 49.007812 462.621094 L 49.007812 49.0625 L 730.152344 49.0625 Z M 730.152344 462.621094 " fill-opacity="1" fill-rule="nonzero"/></g><g clip-path="url(#94edf90a93)"><path fill="#010101" d="M 524.484375 270.152344 L 254.109375 270.152344 C 247.191406 270.152344 241.53125 264.496094 241.53125 257.578125 L 241.53125 122.390625 C 241.53125 115.472656 247.191406 109.816406 254.109375 109.816406 L 525.113281 109.816406 C 532.03125 109.816406 537.6875 115.472656 537.6875 122.390625 L 537.6875 257.578125 C 537.058594 264.496094 531.402344 270.152344 524.484375 270.152344 Z M 266.054688 245.003906 L 512.539062 245.003906 L 512.539062 134.335938 L 266.054688 134.335938 Z M 266.054688 245.003906 " fill-opacity="1" fill-rule="nonzero"/></g><g clip-path="url(#952d67e0b6)"><path fill="#010101" d="M 524.484375 405.34375 L 254.109375 405.34375 C 247.191406 405.34375 241.53125 399.683594 241.53125 392.765625 L 241.53125 257.578125 C 241.53125 250.660156 247.191406 245.003906 254.109375 245.003906 L 525.113281 245.003906 C 532.03125 245.003906 537.6875 250.660156 537.6875 257.578125 L 537.6875 392.765625 C 537.058594 399.683594 531.402344 405.34375 524.484375 405.34375 Z M 266.054688 380.820312 L 512.539062 380.820312 L 512.539062 270.152344 L 266.054688 270.152344 Z M 266.054688 380.820312 " fill-opacity="1" fill-rule="nonzero"/></g><path fill="#010101" d="M 423.878906 202.246094 L 354.714844 202.246094 C 347.796875 202.246094 342.136719 196.585938 342.136719 189.671875 C 342.136719 182.753906 347.796875 177.09375 354.714844 177.09375 L 423.25 177.09375 C 430.167969 177.09375 435.824219 182.753906 435.824219 189.671875 C 435.824219 196.585938 430.167969 202.246094 423.878906 202.246094 Z M 423.878906 202.246094 " fill-opacity="1" fill-rule="nonzero"/><path fill="#010101" d="M 423.878906 337.433594 L 354.714844 337.433594 C 347.796875 337.433594 342.136719 331.773438 342.136719 324.859375 C 342.136719 317.941406 347.796875 312.28125 354.714844 312.28125 L 423.25 312.28125 C 430.167969 312.28125 435.824219 317.941406 435.824219 324.859375 C 435.824219 331.773438 430.167969 337.433594 423.878906 337.433594 Z M 423.878906 337.433594 " fill-opacity="1" fill-rule="nonzero"/></g></g></svg>