<svg xmlns="http://www.w3.org/2000/svg" xmlns:xlink="http://www.w3.org/1999/xlink" width="1080" zoomAndPan="magnify" viewBox="0 0 810 809.999993" height="1080" preserveAspectRatio="xMidYMid meet" version="1.0"><defs><g/><clipPath id="0da2f075d5"><path d="M 223.277344 3.601562 L 586.179688 3.601562 L 586.179688 298.683594 L 223.277344 298.683594 Z M 223.277344 3.601562 " clip-rule="nonzero"/></clipPath><clipPath id="2bc0094662"><path d="M 0 339 L 810 339 L 810 433.398438 L 0 433.398438 Z M 0 339 " clip-rule="nonzero"/></clipPath><clipPath id="3d5d111be5"><rect x="0" width="810" y="0" height="95"/></clipPath><clipPath id="5d51b904f0"><path d="M 335.757812 54.480469 L 473.78125 54.480469 L 473.78125 130 L 335.757812 130 Z M 335.757812 54.480469 " clip-rule="nonzero"/></clipPath><clipPath id="74840d2a79"><path d="M 335.757812 117 L 473.78125 117 L 473.78125 192.503906 L 335.757812 192.503906 Z M 335.757812 117 " clip-rule="nonzero"/></clipPath><clipPath id="a016c2711f"><rect x="0" width="810" y="0" height="434"/></clipPath></defs><rect x="-81" width="972" fill="#ffffff" y="-80.999999" height="971.999992" fill-opacity="1"/><rect x="-81" width="972" fill="#0b0c10" y="-80.999999" height="971.999992" fill-opacity="1"/><g transform="matrix(1, 0, 0, 1, 0, 187)"><g clip-path="url(#a016c2711f)"><g clip-path="url(#0da2f075d5)"><path fill="#fbb03b" d="M 564 3.601562 L 246 3.601562 C 233.507812 3.601562 223.285156 13.824219 223.285156 26.316406 L 223.285156 219.386719 C 223.285156 231.882812 233.507812 242.101562 246 242.101562 L 393.640625 242.101562 L 393.640625 276.175781 L 336.855469 276.175781 C 330.609375 276.175781 325.5 281.285156 325.5 287.53125 C 325.5 293.777344 330.609375 298.886719 336.855469 298.886719 L 473.140625 298.886719 C 479.386719 298.886719 484.5 293.777344 484.5 287.53125 C 484.5 281.285156 479.386719 276.175781 473.140625 276.175781 L 416.355469 276.175781 L 416.355469 242.101562 L 564 242.101562 C 576.492188 242.101562 586.714844 231.882812 586.714844 219.386719 L 586.714844 26.316406 C 586.714844 13.824219 576.492188 3.601562 564 3.601562 Z M 564 219.386719 L 246 219.386719 L 246 26.316406 L 564 26.316406 Z M 564 219.386719 " fill-opacity="1" fill-rule="nonzero"/></g><g clip-path="url(#2bc0094662)"><g transform="matrix(1, 0, 0, 1, 0, 339)"><g clip-path="url(#3d5d111be5)"><g fill="#fbb03b" fill-opacity="1"><g transform="translate(0.0357777, 74.699993)"><g><path d="M 32.046875 0.453125 C 26.753906 0.453125 21.957031 -0.726562 17.65625 -3.09375 C 13.363281 -5.457031 10.007812 -8.695312 7.59375 -12.8125 C 5.175781 -16.9375 3.96875 -21.566406 3.96875 -26.703125 C 3.96875 -31.847656 5.175781 -36.476562 7.59375 -40.59375 C 10.007812 -44.71875 13.363281 -47.960938 17.65625 -50.328125 C 21.957031 -52.691406 26.753906 -53.875 32.046875 -53.875 C 37.335938 -53.875 42.109375 -52.703125 46.359375 -50.359375 C 50.609375 -48.023438 53.953125 -44.785156 56.390625 -40.640625 C 58.835938 -36.492188 60.0625 -31.847656 60.0625 -26.703125 C 60.0625 -21.566406 58.835938 -16.925781 56.390625 -12.78125 C 53.953125 -8.632812 50.609375 -5.390625 46.359375 -3.046875 C 42.109375 -0.710938 37.335938 0.453125 32.046875 0.453125 Z M 32.046875 -4.578125 C 36.273438 -4.578125 40.09375 -5.53125 43.5 -7.4375 C 46.90625 -9.34375 49.570312 -11.988281 51.5 -15.375 C 53.4375 -18.757812 54.40625 -22.535156 54.40625 -26.703125 C 54.40625 -30.878906 53.4375 -34.65625 51.5 -38.03125 C 49.570312 -41.414062 46.90625 -44.0625 43.5 -45.96875 C 40.09375 -47.882812 36.273438 -48.84375 32.046875 -48.84375 C 27.828125 -48.84375 24 -47.882812 20.5625 -45.96875 C 17.132812 -44.0625 14.441406 -41.414062 12.484375 -38.03125 C 10.523438 -34.65625 9.546875 -30.878906 9.546875 -26.703125 C 9.546875 -22.535156 10.523438 -18.757812 12.484375 -15.375 C 14.441406 -11.988281 17.132812 -9.34375 20.5625 -7.4375 C 24 -5.53125 27.828125 -4.578125 32.046875 -4.578125 Z M 32.046875 -4.578125 "/></g></g></g><g fill="#fbb03b" fill-opacity="1"><g transform="translate(64.056962, 74.699993)"><g/></g></g><g fill="#fbb03b" fill-opacity="1"><g transform="translate(84.051538, 74.699993)"><g><path d="M 54.9375 0 L 54.875 -32.046875 L 39.140625 -5.640625 L 33.578125 -5.640625 L 17.9375 -31.359375 L 17.9375 0 L 6.328125 0 L 6.328125 -53.421875 L 16.5625 -53.421875 L 36.546875 -20.21875 L 56.25 -53.421875 L 66.390625 -53.421875 L 66.546875 0 Z M 54.9375 0 "/></g></g></g><g fill="#fbb03b" fill-opacity="1"><g transform="translate(156.924275, 74.699993)"><g><path d="M 22.046875 -41.671875 C 28.410156 -41.671875 33.296875 -40.15625 36.703125 -37.125 C 40.109375 -34.09375 41.8125 -29.523438 41.8125 -23.421875 L 41.8125 0 L 30.671875 0 L 30.671875 -5.109375 C 28.429688 -1.296875 24.257812 0.609375 18.15625 0.609375 C 15.007812 0.609375 12.273438 0.078125 9.953125 -0.984375 C 7.640625 -2.054688 5.875 -3.53125 4.65625 -5.40625 C 3.4375 -7.289062 2.828125 -9.429688 2.828125 -11.828125 C 2.828125 -15.640625 4.265625 -18.640625 7.140625 -20.828125 C 10.015625 -23.015625 14.453125 -24.109375 20.453125 -24.109375 L 29.921875 -24.109375 C 29.921875 -26.703125 29.128906 -28.695312 27.546875 -30.09375 C 25.972656 -31.5 23.609375 -32.203125 20.453125 -32.203125 C 18.265625 -32.203125 16.113281 -31.859375 14 -31.171875 C 11.894531 -30.484375 10.101562 -29.554688 8.625 -28.390625 L 4.34375 -36.703125 C 6.582031 -38.285156 9.265625 -39.507812 12.390625 -40.375 C 15.523438 -41.238281 18.742188 -41.671875 22.046875 -41.671875 Z M 21.140625 -7.40625 C 23.171875 -7.40625 24.972656 -7.875 26.546875 -8.8125 C 28.128906 -9.75 29.253906 -11.132812 29.921875 -12.96875 L 29.921875 -17.171875 L 21.75 -17.171875 C 16.863281 -17.171875 14.421875 -15.566406 14.421875 -12.359375 C 14.421875 -10.835938 15.019531 -9.628906 16.21875 -8.734375 C 17.414062 -7.847656 19.054688 -7.40625 21.140625 -7.40625 Z M 21.140625 -7.40625 "/></g></g></g><g fill="#fbb03b" fill-opacity="1"><g transform="translate(204.005404, 74.699993)"><g><path d="M 16.859375 -35.640625 C 18.285156 -37.617188 20.207031 -39.117188 22.625 -40.140625 C 25.039062 -41.160156 27.828125 -41.671875 30.984375 -41.671875 L 30.984375 -30.671875 C 29.660156 -30.773438 28.769531 -30.828125 28.3125 -30.828125 C 24.90625 -30.828125 22.234375 -29.875 20.296875 -27.96875 C 18.367188 -26.0625 17.40625 -23.203125 17.40625 -19.390625 L 17.40625 0 L 5.5 0 L 5.5 -41.0625 L 16.859375 -41.0625 Z M 16.859375 -35.640625 "/></g></g></g><g fill="#fbb03b" fill-opacity="1"><g transform="translate(236.206711, 74.699993)"><g><path d="M 25.328125 0.609375 C 20.953125 0.609375 17.019531 -0.289062 13.53125 -2.09375 C 10.050781 -3.90625 7.332031 -6.410156 5.375 -9.609375 C 3.414062 -12.816406 2.4375 -16.457031 2.4375 -20.53125 C 2.4375 -24.601562 3.414062 -28.238281 5.375 -31.4375 C 7.332031 -34.644531 10.050781 -37.148438 13.53125 -38.953125 C 17.019531 -40.765625 20.953125 -41.671875 25.328125 -41.671875 C 29.660156 -41.671875 33.441406 -40.765625 36.671875 -38.953125 C 39.898438 -37.148438 42.253906 -34.570312 43.734375 -31.21875 L 34.5 -26.25 C 32.351562 -30.019531 29.273438 -31.90625 25.265625 -31.90625 C 22.160156 -31.90625 19.585938 -30.882812 17.546875 -28.84375 C 15.515625 -26.8125 14.5 -24.039062 14.5 -20.53125 C 14.5 -17.019531 15.515625 -14.242188 17.546875 -12.203125 C 19.585938 -10.171875 22.160156 -9.15625 25.265625 -9.15625 C 29.328125 -9.15625 32.40625 -11.035156 34.5 -14.796875 L 43.734375 -9.765625 C 42.253906 -6.515625 39.898438 -3.972656 36.671875 -2.140625 C 33.441406 -0.304688 29.660156 0.609375 25.328125 0.609375 Z M 25.328125 0.609375 "/></g></g></g><g fill="#fbb03b" fill-opacity="1"><g transform="translate(280.769705, 74.699993)"><g><path d="M 45.71875 -20.375 C 45.71875 -20.21875 45.640625 -19.148438 45.484375 -17.171875 L 14.421875 -17.171875 C 14.984375 -14.628906 16.304688 -12.617188 18.390625 -11.140625 C 20.472656 -9.660156 23.066406 -8.921875 26.171875 -8.921875 C 28.304688 -8.921875 30.203125 -9.238281 31.859375 -9.875 C 33.515625 -10.519531 35.054688 -11.523438 36.484375 -12.890625 L 42.8125 -6.03125 C 38.945312 -1.601562 33.300781 0.609375 25.875 0.609375 C 21.238281 0.609375 17.140625 -0.289062 13.578125 -2.09375 C 10.015625 -3.90625 7.265625 -6.410156 5.328125 -9.609375 C 3.398438 -12.816406 2.4375 -16.457031 2.4375 -20.53125 C 2.4375 -24.550781 3.390625 -28.175781 5.296875 -31.40625 C 7.210938 -34.632812 9.832031 -37.148438 13.15625 -38.953125 C 16.488281 -40.765625 20.21875 -41.671875 24.34375 -41.671875 C 28.363281 -41.671875 32 -40.804688 35.25 -39.078125 C 38.507812 -37.347656 41.066406 -34.863281 42.921875 -31.625 C 44.785156 -28.394531 45.71875 -24.644531 45.71875 -20.375 Z M 24.421875 -32.65625 C 21.722656 -32.65625 19.457031 -31.890625 17.625 -30.359375 C 15.789062 -28.835938 14.671875 -26.753906 14.265625 -24.109375 L 34.5 -24.109375 C 34.082031 -26.703125 32.957031 -28.773438 31.125 -30.328125 C 29.300781 -31.878906 27.066406 -32.65625 24.421875 -32.65625 Z M 24.421875 -32.65625 "/></g></g></g><g fill="#fbb03b" fill-opacity="1"><g transform="translate(328.919118, 74.699993)"><g><path d="M 30.453125 -41.671875 C 35.535156 -41.671875 39.640625 -40.144531 42.765625 -37.09375 C 45.898438 -34.039062 47.46875 -29.507812 47.46875 -23.5 L 47.46875 0 L 35.5625 0 L 35.5625 -21.671875 C 35.5625 -24.929688 34.847656 -27.359375 33.421875 -28.953125 C 31.992188 -30.554688 29.9375 -31.359375 27.25 -31.359375 C 24.238281 -31.359375 21.84375 -30.429688 20.0625 -28.578125 C 18.289062 -26.722656 17.40625 -23.960938 17.40625 -20.296875 L 17.40625 0 L 5.5 0 L 5.5 -41.0625 L 16.859375 -41.0625 L 16.859375 -36.25 C 18.441406 -37.976562 20.398438 -39.3125 22.734375 -40.25 C 25.078125 -41.195312 27.648438 -41.671875 30.453125 -41.671875 Z M 30.453125 -41.671875 "/></g></g></g><g fill="#fbb03b" fill-opacity="1"><g transform="translate(382.104817, 74.699993)"><g><path d="M 45.71875 -20.375 C 45.71875 -20.21875 45.640625 -19.148438 45.484375 -17.171875 L 14.421875 -17.171875 C 14.984375 -14.628906 16.304688 -12.617188 18.390625 -11.140625 C 20.472656 -9.660156 23.066406 -8.921875 26.171875 -8.921875 C 28.304688 -8.921875 30.203125 -9.238281 31.859375 -9.875 C 33.515625 -10.519531 35.054688 -11.523438 36.484375 -12.890625 L 42.8125 -6.03125 C 38.945312 -1.601562 33.300781 0.609375 25.875 0.609375 C 21.238281 0.609375 17.140625 -0.289062 13.578125 -2.09375 C 10.015625 -3.90625 7.265625 -6.410156 5.328125 -9.609375 C 3.398438 -12.816406 2.4375 -16.457031 2.4375 -20.53125 C 2.4375 -24.550781 3.390625 -28.175781 5.296875 -31.40625 C 7.210938 -34.632812 9.832031 -37.148438 13.15625 -38.953125 C 16.488281 -40.765625 20.21875 -41.671875 24.34375 -41.671875 C 28.363281 -41.671875 32 -40.804688 35.25 -39.078125 C 38.507812 -37.347656 41.066406 -34.863281 42.921875 -31.625 C 44.785156 -28.394531 45.71875 -24.644531 45.71875 -20.375 Z M 24.421875 -32.65625 C 21.722656 -32.65625 19.457031 -31.890625 17.625 -30.359375 C 15.789062 -28.835938 14.671875 -26.753906 14.265625 -24.109375 L 34.5 -24.109375 C 34.082031 -26.703125 32.957031 -28.773438 31.125 -30.328125 C 29.300781 -31.878906 27.066406 -32.65625 24.421875 -32.65625 Z M 24.421875 -32.65625 "/></g></g></g><g fill="#fbb03b" fill-opacity="1"><g transform="translate(430.254195, 74.699993)"><g><path d="M 5.5 -41.0625 L 17.40625 -41.0625 L 17.40625 0 L 5.5 0 Z M 11.453125 -46.78125 C 9.265625 -46.78125 7.484375 -47.414062 6.109375 -48.6875 C 4.734375 -49.957031 4.046875 -51.535156 4.046875 -53.421875 C 4.046875 -55.304688 4.734375 -56.882812 6.109375 -58.15625 C 7.484375 -59.425781 9.265625 -60.0625 11.453125 -60.0625 C 13.640625 -60.0625 15.421875 -59.445312 16.796875 -58.21875 C 18.171875 -57 18.859375 -55.472656 18.859375 -53.640625 C 18.859375 -51.660156 18.171875 -50.019531 16.796875 -48.71875 C 15.421875 -47.425781 13.640625 -46.78125 11.453125 -46.78125 Z M 11.453125 -46.78125 "/></g></g></g><g fill="#fbb03b" fill-opacity="1"><g transform="translate(453.222504, 74.699993)"><g><path d="M 16.859375 -35.640625 C 18.285156 -37.617188 20.207031 -39.117188 22.625 -40.140625 C 25.039062 -41.160156 27.828125 -41.671875 30.984375 -41.671875 L 30.984375 -30.671875 C 29.660156 -30.773438 28.769531 -30.828125 28.3125 -30.828125 C 24.90625 -30.828125 22.234375 -29.875 20.296875 -27.96875 C 18.367188 -26.0625 17.40625 -23.203125 17.40625 -19.390625 L 17.40625 0 L 5.5 0 L 5.5 -41.0625 L 16.859375 -41.0625 Z M 16.859375 -35.640625 "/></g></g></g><g fill="#fbb03b" fill-opacity="1"><g transform="translate(485.423775, 74.699993)"><g><path d="M 25.03125 0.609375 C 20.707031 0.609375 16.828125 -0.289062 13.390625 -2.09375 C 9.953125 -3.90625 7.265625 -6.410156 5.328125 -9.609375 C 3.398438 -12.816406 2.4375 -16.457031 2.4375 -20.53125 C 2.4375 -24.601562 3.398438 -28.238281 5.328125 -31.4375 C 7.265625 -34.644531 9.953125 -37.148438 13.390625 -38.953125 C 16.828125 -40.765625 20.707031 -41.671875 25.03125 -41.671875 C 29.351562 -41.671875 33.21875 -40.765625 36.625 -38.953125 C 40.039062 -37.148438 42.710938 -34.644531 44.640625 -31.4375 C 46.578125 -28.238281 47.546875 -24.601562 47.546875 -20.53125 C 47.546875 -16.457031 46.578125 -12.816406 44.640625 -9.609375 C 42.710938 -6.410156 40.039062 -3.90625 36.625 -2.09375 C 33.21875 -0.289062 29.351562 0.609375 25.03125 0.609375 Z M 25.03125 -9.15625 C 28.082031 -9.15625 30.585938 -10.1875 32.546875 -12.25 C 34.503906 -14.3125 35.484375 -17.070312 35.484375 -20.53125 C 35.484375 -23.988281 34.503906 -26.75 32.546875 -28.8125 C 30.585938 -30.875 28.082031 -31.90625 25.03125 -31.90625 C 21.976562 -31.90625 19.457031 -30.875 17.46875 -28.8125 C 15.488281 -26.75 14.5 -23.988281 14.5 -20.53125 C 14.5 -17.070312 15.488281 -14.3125 17.46875 -12.25 C 19.457031 -10.1875 21.976562 -9.15625 25.03125 -9.15625 Z M 25.03125 -9.15625 "/></g></g></g><g fill="#fbb03b" fill-opacity="1"><g transform="translate(535.404556, 74.699993)"><g/></g></g><g fill="#fbb03b" fill-opacity="1"><g transform="translate(557.004639, 74.699993)"><g><path d="M 8.703125 -53.421875 L 30.453125 -53.421875 C 36.097656 -53.421875 41.082031 -52.285156 45.40625 -50.015625 C 49.726562 -47.753906 53.082031 -44.601562 55.46875 -40.5625 C 57.863281 -36.519531 59.0625 -31.898438 59.0625 -26.703125 C 59.0625 -21.515625 57.863281 -16.898438 55.46875 -12.859375 C 53.082031 -8.816406 49.726562 -5.660156 45.40625 -3.390625 C 41.082031 -1.128906 36.097656 0 30.453125 0 L 8.703125 0 Z M 30.140625 -4.890625 C 34.828125 -4.890625 38.925781 -5.816406 42.4375 -7.671875 C 45.945312 -9.523438 48.664062 -12.09375 50.59375 -15.375 C 52.53125 -18.65625 53.5 -22.429688 53.5 -26.703125 C 53.5 -30.984375 52.53125 -34.765625 50.59375 -38.046875 C 48.664062 -41.328125 45.945312 -43.894531 42.4375 -45.75 C 38.925781 -47.601562 34.828125 -48.53125 30.140625 -48.53125 L 14.34375 -48.53125 L 14.34375 -4.890625 Z M 30.140625 -4.890625 "/></g></g></g><g fill="#fbb03b" fill-opacity="1"><g transform="translate(620.03384, 74.699993)"><g><path d="M 7.5625 -40.140625 L 12.96875 -40.140625 L 12.96875 0 L 7.5625 0 Z M 10.3125 -48.921875 C 9.1875 -48.921875 8.242188 -49.300781 7.484375 -50.0625 C 6.722656 -50.820312 6.34375 -51.738281 6.34375 -52.8125 C 6.34375 -53.820312 6.722656 -54.707031 7.484375 -55.46875 C 8.242188 -56.238281 9.1875 -56.625 10.3125 -56.625 C 11.425781 -56.625 12.363281 -56.253906 13.125 -55.515625 C 13.894531 -54.773438 14.28125 -53.898438 14.28125 -52.890625 C 14.28125 -51.765625 13.894531 -50.820312 13.125 -50.0625 C 12.363281 -49.300781 11.425781 -48.921875 10.3125 -48.921875 Z M 10.3125 -48.921875 "/></g></g></g><g fill="#fbb03b" fill-opacity="1"><g transform="translate(640.560295, 74.699993)"><g><path d="M 44.71875 -40.140625 L 44.71875 -4.890625 C 44.71875 1.929688 43.050781 6.984375 39.71875 10.265625 C 36.382812 13.546875 31.363281 15.1875 24.65625 15.1875 C 20.9375 15.1875 17.410156 14.640625 14.078125 13.546875 C 10.742188 12.453125 8.035156 10.9375 5.953125 9 L 8.703125 4.890625 C 10.628906 6.617188 12.976562 7.960938 15.75 8.921875 C 18.53125 9.890625 21.445312 10.375 24.5 10.375 C 29.582031 10.375 33.316406 9.191406 35.703125 6.828125 C 38.097656 4.460938 39.296875 0.785156 39.296875 -4.203125 L 39.296875 -9.3125 C 37.617188 -6.769531 35.421875 -4.835938 32.703125 -3.515625 C 29.984375 -2.191406 26.96875 -1.53125 23.65625 -1.53125 C 19.894531 -1.53125 16.472656 -2.351562 13.390625 -4 C 10.316406 -5.65625 7.898438 -7.972656 6.140625 -10.953125 C 4.390625 -13.929688 3.515625 -17.300781 3.515625 -21.0625 C 3.515625 -24.820312 4.390625 -28.175781 6.140625 -31.125 C 7.898438 -34.082031 10.304688 -36.375 13.359375 -38 C 16.410156 -39.632812 19.84375 -40.453125 23.65625 -40.453125 C 27.0625 -40.453125 30.140625 -39.765625 32.890625 -38.390625 C 35.640625 -37.015625 37.851562 -35.03125 39.53125 -32.4375 L 39.53125 -40.140625 Z M 24.1875 -6.328125 C 27.09375 -6.328125 29.710938 -6.953125 32.046875 -8.203125 C 34.390625 -9.453125 36.207031 -11.191406 37.5 -13.421875 C 38.800781 -15.660156 39.453125 -18.207031 39.453125 -21.0625 C 39.453125 -23.90625 38.800781 -26.429688 37.5 -28.640625 C 36.207031 -30.859375 34.40625 -32.59375 32.09375 -33.84375 C 29.78125 -35.09375 27.144531 -35.71875 24.1875 -35.71875 C 21.289062 -35.71875 18.679688 -35.101562 16.359375 -33.875 C 14.046875 -32.65625 12.238281 -30.925781 10.9375 -28.6875 C 9.644531 -26.445312 9 -23.90625 9 -21.0625 C 9 -18.207031 9.644531 -15.660156 10.9375 -13.421875 C 12.238281 -11.191406 14.046875 -9.453125 16.359375 -8.203125 C 18.679688 -6.953125 21.289062 -6.328125 24.1875 -6.328125 Z M 24.1875 -6.328125 "/></g></g></g><g fill="#fbb03b" fill-opacity="1"><g transform="translate(692.906575, 74.699993)"><g><path d="M 7.5625 -40.140625 L 12.96875 -40.140625 L 12.96875 0 L 7.5625 0 Z M 10.3125 -48.921875 C 9.1875 -48.921875 8.242188 -49.300781 7.484375 -50.0625 C 6.722656 -50.820312 6.34375 -51.738281 6.34375 -52.8125 C 6.34375 -53.820312 6.722656 -54.707031 7.484375 -55.46875 C 8.242188 -56.238281 9.1875 -56.625 10.3125 -56.625 C 11.425781 -56.625 12.363281 -56.253906 13.125 -55.515625 C 13.894531 -54.773438 14.28125 -53.898438 14.28125 -52.890625 C 14.28125 -51.765625 13.894531 -50.820312 13.125 -50.0625 C 12.363281 -49.300781 11.425781 -48.921875 10.3125 -48.921875 Z M 10.3125 -48.921875 "/></g></g></g><g fill="#fbb03b" fill-opacity="1"><g transform="translate(713.433031, 74.699993)"><g><path d="M 28.6875 -2.4375 C 27.675781 -1.519531 26.421875 -0.820312 24.921875 -0.34375 C 23.421875 0.132812 21.851562 0.375 20.21875 0.375 C 16.457031 0.375 13.554688 -0.640625 11.515625 -2.671875 C 9.484375 -4.703125 8.46875 -7.578125 8.46875 -11.296875 L 8.46875 -35.5625 L 1.296875 -35.5625 L 1.296875 -40.140625 L 8.46875 -40.140625 L 8.46875 -48.921875 L 13.890625 -48.921875 L 13.890625 -40.140625 L 26.09375 -40.140625 L 26.09375 -35.5625 L 13.890625 -35.5625 L 13.890625 -11.59375 C 13.890625 -9.207031 14.484375 -7.390625 15.671875 -6.140625 C 16.867188 -4.898438 18.585938 -4.28125 20.828125 -4.28125 C 21.953125 -4.28125 23.035156 -4.457031 24.078125 -4.8125 C 25.117188 -5.164062 26.019531 -5.671875 26.78125 -6.328125 Z M 28.6875 -2.4375 "/></g></g></g><g fill="#fbb03b" fill-opacity="1"><g transform="translate(744.41349, 74.699993)"><g><path d="M 21.59375 -40.453125 C 26.832031 -40.453125 30.847656 -39.140625 33.640625 -36.515625 C 36.441406 -33.890625 37.84375 -30.007812 37.84375 -24.875 L 37.84375 0 L 32.65625 0 L 32.65625 -6.25 C 31.4375 -4.164062 29.644531 -2.539062 27.28125 -1.375 C 24.914062 -0.207031 22.101562 0.375 18.84375 0.375 C 14.375 0.375 10.816406 -0.691406 8.171875 -2.828125 C 5.523438 -4.960938 4.203125 -7.785156 4.203125 -11.296875 C 4.203125 -14.703125 5.429688 -17.445312 7.890625 -19.53125 C 10.359375 -21.625 14.289062 -22.671875 19.6875 -22.671875 L 32.4375 -22.671875 L 32.4375 -25.109375 C 32.4375 -28.566406 31.46875 -31.195312 29.53125 -33 C 27.601562 -34.8125 24.78125 -35.71875 21.0625 -35.71875 C 18.519531 -35.71875 16.078125 -35.296875 13.734375 -34.453125 C 11.390625 -33.617188 9.378906 -32.460938 7.703125 -30.984375 L 5.265625 -35.03125 C 7.296875 -36.757812 9.734375 -38.09375 12.578125 -39.03125 C 15.429688 -39.976562 18.4375 -40.453125 21.59375 -40.453125 Z M 19.6875 -3.890625 C 22.738281 -3.890625 25.359375 -4.585938 27.546875 -5.984375 C 29.734375 -7.390625 31.363281 -9.414062 32.4375 -12.0625 L 32.4375 -18.625 L 19.84375 -18.625 C 12.976562 -18.625 9.546875 -16.234375 9.546875 -11.453125 C 9.546875 -9.109375 10.429688 -7.257812 12.203125 -5.90625 C 13.984375 -4.5625 16.476562 -3.890625 19.6875 -3.890625 Z M 19.6875 -3.890625 "/></g></g></g><g fill="#fbb03b" fill-opacity="1"><g transform="translate(789.434335, 74.699993)"><g><path d="M 7.5625 -56.625 L 12.96875 -56.625 L 12.96875 0 L 7.5625 0 Z M 7.5625 -56.625 "/></g></g></g></g></g></g><g clip-path="url(#5d51b904f0)"><path fill="#fbb03b" d="M 468.054688 129.59375 L 341.640625 129.59375 C 338.40625 129.59375 335.757812 126.949219 335.757812 123.714844 L 335.757812 60.507812 C 335.757812 57.273438 338.40625 54.628906 341.640625 54.628906 L 468.347656 54.628906 C 471.582031 54.628906 474.226562 57.273438 474.226562 60.507812 L 474.226562 123.714844 C 473.933594 126.949219 471.289062 129.59375 468.054688 129.59375 Z M 347.226562 117.835938 L 462.46875 117.835938 L 462.46875 66.09375 L 347.226562 66.09375 Z M 347.226562 117.835938 " fill-opacity="1" fill-rule="nonzero"/></g><g clip-path="url(#74840d2a79)"><path fill="#fbb03b" d="M 468.054688 192.800781 L 341.640625 192.800781 C 338.40625 192.800781 335.757812 190.15625 335.757812 186.921875 L 335.757812 123.714844 C 335.757812 120.480469 338.40625 117.835938 341.640625 117.835938 L 468.347656 117.835938 C 471.582031 117.835938 474.226562 120.480469 474.226562 123.714844 L 474.226562 186.921875 C 473.933594 190.15625 471.289062 192.800781 468.054688 192.800781 Z M 347.226562 181.335938 L 462.46875 181.335938 L 462.46875 129.59375 L 347.226562 129.59375 Z M 347.226562 181.335938 " fill-opacity="1" fill-rule="nonzero"/></g><path fill="#fbb03b" d="M 421.015625 97.84375 L 388.675781 97.84375 C 385.445312 97.84375 382.796875 95.199219 382.796875 91.964844 C 382.796875 88.730469 385.445312 86.082031 388.675781 86.082031 L 420.722656 86.082031 C 423.957031 86.082031 426.601562 88.730469 426.601562 91.964844 C 426.601562 95.199219 423.957031 97.84375 421.015625 97.84375 Z M 421.015625 97.84375 " fill-opacity="1" fill-rule="nonzero"/><path fill="#fbb03b" d="M 421.015625 161.050781 L 388.675781 161.050781 C 385.445312 161.050781 382.796875 158.40625 382.796875 155.171875 C 382.796875 151.9375 385.445312 149.292969 388.675781 149.292969 L 420.722656 149.292969 C 423.957031 149.292969 426.601562 151.9375 426.601562 155.171875 C 426.601562 158.40625 423.957031 161.050781 421.015625 161.050781 Z M 421.015625 161.050781 " fill-opacity="1" fill-rule="nonzero"/></g></g></svg>