<svg xmlns="http://www.w3.org/2000/svg" xmlns:xlink="http://www.w3.org/1999/xlink" width="1080" zoomAndPan="magnify" viewBox="0 0 810 809.999993" height="1080" preserveAspectRatio="xMidYMid meet" version="1.0"><defs><g/><clipPath id="14f93ee5fc"><path d="M 1.136719 1.632812 L 108.402344 1.632812 L 108.402344 88.933594 L 1.136719 88.933594 Z M 1.136719 1.632812 " clip-rule="nonzero"/></clipPath><clipPath id="884923d4ea"><path d="M 34.386719 16.671875 L 75.328125 16.671875 L 75.328125 39 L 34.386719 39 Z M 34.386719 16.671875 " clip-rule="nonzero"/></clipPath><clipPath id="6a24b70a9c"><path d="M 34.386719 35 L 75.328125 35 L 75.328125 57.617188 L 34.386719 57.617188 Z M 34.386719 35 " clip-rule="nonzero"/></clipPath><clipPath id="1f7df752a0"><path d="M 128 8 L 752.078125 8 L 752.078125 81 L 128 81 Z M 128 8 " clip-rule="nonzero"/></clipPath><clipPath id="462f5007b3"><rect x="0" width="625" y="0" height="73"/></clipPath><clipPath id="536eefdd8f"><rect x="0" width="753" y="0" height="90"/></clipPath></defs><rect x="-81" width="972" fill="#ffffff" y="-80.999999" height="971.999992" fill-opacity="1"/><rect x="-81" width="972" fill="#0b0c10" y="-80.999999" height="971.999992" fill-opacity="1"/><g transform="matrix(1, 0, 0, 1, 32, 347)"><g clip-path="url(#536eefdd8f)"><g clip-path="url(#14f93ee5fc)"><path fill="#ffffff" d="M 101.847656 1.632812 L 7.851562 1.632812 C 4.160156 1.632812 1.140625 4.652344 1.140625 8.347656 L 1.140625 65.414062 C 1.140625 69.109375 4.160156 72.128906 7.851562 72.128906 L 51.492188 72.128906 L 51.492188 82.199219 L 34.707031 82.199219 C 32.863281 82.199219 31.351562 83.710938 31.351562 85.558594 C 31.351562 87.402344 32.863281 88.914062 34.707031 88.914062 L 74.992188 88.914062 C 76.839844 88.914062 78.347656 87.402344 78.347656 85.558594 C 78.347656 83.710938 76.839844 82.199219 74.992188 82.199219 L 58.207031 82.199219 L 58.207031 72.128906 L 101.847656 72.128906 C 105.539062 72.128906 108.5625 69.109375 108.5625 65.414062 L 108.5625 8.347656 C 108.5625 4.652344 105.539062 1.632812 101.847656 1.632812 Z M 101.847656 65.414062 L 7.851562 65.414062 L 7.851562 8.347656 L 101.847656 8.347656 Z M 101.847656 65.414062 " fill-opacity="1" fill-rule="nonzero"/></g><g clip-path="url(#884923d4ea)"><path fill="#ffffff" d="M 73.488281 38.875 L 36.125 38.875 C 35.167969 38.875 34.386719 38.089844 34.386719 37.136719 L 34.386719 18.453125 C 34.386719 17.496094 35.167969 16.714844 36.125 16.714844 L 73.574219 16.714844 C 74.53125 16.714844 75.3125 17.496094 75.3125 18.453125 L 75.3125 37.136719 C 75.226562 38.089844 74.445312 38.875 73.488281 38.875 Z M 37.773438 35.398438 L 71.839844 35.398438 L 71.839844 20.105469 L 37.773438 20.105469 Z M 37.773438 35.398438 " fill-opacity="1" fill-rule="nonzero"/></g><g clip-path="url(#6a24b70a9c)"><path fill="#ffffff" d="M 73.488281 57.554688 L 36.125 57.554688 C 35.167969 57.554688 34.386719 56.773438 34.386719 55.816406 L 34.386719 37.136719 C 34.386719 36.179688 35.167969 35.398438 36.125 35.398438 L 73.574219 35.398438 C 74.53125 35.398438 75.3125 36.179688 75.3125 37.136719 L 75.3125 55.816406 C 75.226562 56.773438 74.445312 57.554688 73.488281 57.554688 Z M 37.773438 54.167969 L 71.839844 54.167969 L 71.839844 38.875 L 37.773438 38.875 Z M 37.773438 54.167969 " fill-opacity="1" fill-rule="nonzero"/></g><path fill="#ffffff" d="M 59.585938 29.488281 L 50.027344 29.488281 C 49.070312 29.488281 48.289062 28.707031 48.289062 27.75 C 48.289062 26.796875 49.070312 26.011719 50.027344 26.011719 L 59.5 26.011719 C 60.453125 26.011719 61.238281 26.796875 61.238281 27.75 C 61.238281 28.707031 60.453125 29.488281 59.585938 29.488281 Z M 59.585938 29.488281 " fill-opacity="1" fill-rule="nonzero"/><path fill="#ffffff" d="M 59.585938 48.171875 L 50.027344 48.171875 C 49.070312 48.171875 48.289062 47.390625 48.289062 46.433594 C 48.289062 45.476562 49.070312 44.695312 50.027344 44.695312 L 59.5 44.695312 C 60.453125 44.695312 61.238281 45.476562 61.238281 46.433594 C 61.238281 47.390625 60.453125 48.171875 59.585938 48.171875 Z M 59.585938 48.171875 " fill-opacity="1" fill-rule="nonzero"/><g clip-path="url(#1f7df752a0)"><g transform="matrix(1, 0, 0, 1, 128, 8)"><g clip-path="url(#462f5007b3)"><g fill="#ffffff" fill-opacity="1"><g transform="translate(0.809107, 57.956972)"><g><path d="M 24.640625 0.359375 C 20.578125 0.359375 16.890625 -0.550781 13.578125 -2.375 C 10.273438 -4.195312 7.691406 -6.691406 5.828125 -9.859375 C 3.972656 -13.023438 3.046875 -16.582031 3.046875 -20.53125 C 3.046875 -24.488281 3.972656 -28.050781 5.828125 -31.21875 C 7.691406 -34.382812 10.273438 -36.875 13.578125 -38.6875 C 16.890625 -40.507812 20.578125 -41.421875 24.640625 -41.421875 C 28.710938 -41.421875 32.378906 -40.519531 35.640625 -38.71875 C 38.910156 -36.925781 41.484375 -34.4375 43.359375 -31.25 C 45.234375 -28.0625 46.171875 -24.488281 46.171875 -20.53125 C 46.171875 -16.582031 45.234375 -13.015625 43.359375 -9.828125 C 41.484375 -6.640625 38.910156 -4.144531 35.640625 -2.34375 C 32.378906 -0.539062 28.710938 0.359375 24.640625 0.359375 Z M 24.640625 -3.515625 C 27.890625 -3.515625 30.820312 -4.25 33.4375 -5.71875 C 36.0625 -7.1875 38.113281 -9.21875 39.59375 -11.8125 C 41.082031 -14.414062 41.828125 -17.320312 41.828125 -20.53125 C 41.828125 -23.738281 41.082031 -26.644531 39.59375 -29.25 C 38.113281 -31.851562 36.0625 -33.882812 33.4375 -35.34375 C 30.820312 -36.8125 27.890625 -37.546875 24.640625 -37.546875 C 21.390625 -37.546875 18.445312 -36.8125 15.8125 -35.34375 C 13.175781 -33.882812 11.101562 -31.851562 9.59375 -29.25 C 8.082031 -26.644531 7.328125 -23.738281 7.328125 -20.53125 C 7.328125 -17.320312 8.082031 -14.414062 9.59375 -11.8125 C 11.101562 -9.21875 13.175781 -7.1875 15.8125 -5.71875 C 18.445312 -4.25 21.390625 -3.515625 24.640625 -3.515625 Z M 24.640625 -3.515625 "/></g></g></g><g fill="#ffffff" fill-opacity="1"><g transform="translate(50.025671, 57.956972)"><g/></g></g><g fill="#ffffff" fill-opacity="1"><g transform="translate(65.396588, 57.956972)"><g><path d="M 42.25 0 L 42.1875 -24.640625 L 30.09375 -4.34375 L 25.8125 -4.34375 L 13.78125 -24.109375 L 13.78125 0 L 4.875 0 L 4.875 -41.078125 L 12.734375 -41.078125 L 28.109375 -15.546875 L 43.234375 -41.078125 L 51.046875 -41.078125 L 51.15625 0 Z M 42.25 0 "/></g></g></g><g fill="#ffffff" fill-opacity="1"><g transform="translate(121.417822, 57.956972)"><g><path d="M 16.953125 -32.03125 C 21.847656 -32.03125 25.601562 -30.863281 28.21875 -28.53125 C 30.84375 -26.207031 32.15625 -22.703125 32.15625 -18.015625 L 32.15625 0 L 23.59375 0 L 23.59375 -3.9375 C 21.863281 -1 18.65625 0.46875 13.96875 0.46875 C 11.539062 0.46875 9.4375 0.0546875 7.65625 -0.765625 C 5.875 -1.585938 4.515625 -2.722656 3.578125 -4.171875 C 2.640625 -5.617188 2.171875 -7.257812 2.171875 -9.09375 C 2.171875 -12.03125 3.273438 -14.335938 5.484375 -16.015625 C 7.691406 -17.703125 11.101562 -18.546875 15.71875 -18.546875 L 23 -18.546875 C 23 -20.535156 22.390625 -22.066406 21.171875 -23.140625 C 19.960938 -24.222656 18.144531 -24.765625 15.71875 -24.765625 C 14.039062 -24.765625 12.390625 -24.5 10.765625 -23.96875 C 9.140625 -23.4375 7.757812 -22.722656 6.625 -21.828125 L 3.34375 -28.21875 C 5.0625 -29.4375 7.125 -30.375 9.53125 -31.03125 C 11.9375 -31.695312 14.410156 -32.03125 16.953125 -32.03125 Z M 16.25 -5.6875 C 17.8125 -5.6875 19.195312 -6.046875 20.40625 -6.765625 C 21.625 -7.492188 22.488281 -8.5625 23 -9.96875 L 23 -13.203125 L 16.71875 -13.203125 C 12.96875 -13.203125 11.09375 -11.96875 11.09375 -9.5 C 11.09375 -8.332031 11.550781 -7.40625 12.46875 -6.71875 C 13.382812 -6.03125 14.644531 -5.6875 16.25 -5.6875 Z M 16.25 -5.6875 "/></g></g></g><g fill="#ffffff" fill-opacity="1"><g transform="translate(157.611645, 57.956972)"><g><path d="M 12.96875 -27.40625 C 14.0625 -28.925781 15.535156 -30.078125 17.390625 -30.859375 C 19.253906 -31.640625 21.398438 -32.03125 23.828125 -32.03125 L 23.828125 -23.59375 C 22.804688 -23.664062 22.117188 -23.703125 21.765625 -23.703125 C 19.148438 -23.703125 17.097656 -22.96875 15.609375 -21.5 C 14.117188 -20.03125 13.375 -17.832031 13.375 -14.90625 L 13.375 0 L 4.21875 0 L 4.21875 -31.5625 L 12.96875 -31.5625 Z M 12.96875 -27.40625 "/></g></g></g><g fill="#ffffff" fill-opacity="1"><g transform="translate(182.36654, 57.956972)"><g><path d="M 19.484375 0.46875 C 16.117188 0.46875 13.09375 -0.222656 10.40625 -1.609375 C 7.726562 -3.003906 5.632812 -4.929688 4.125 -7.390625 C 2.625 -9.859375 1.875 -12.65625 1.875 -15.78125 C 1.875 -18.90625 2.625 -21.703125 4.125 -24.171875 C 5.632812 -26.640625 7.726562 -28.566406 10.40625 -29.953125 C 13.09375 -31.335938 16.117188 -32.03125 19.484375 -32.03125 C 22.804688 -32.03125 25.707031 -31.335938 28.1875 -29.953125 C 30.675781 -28.566406 32.488281 -26.582031 33.625 -24 L 26.515625 -20.1875 C 24.878906 -23.082031 22.515625 -24.53125 19.421875 -24.53125 C 17.035156 -24.53125 15.054688 -23.742188 13.484375 -22.171875 C 11.921875 -20.609375 11.140625 -18.476562 11.140625 -15.78125 C 11.140625 -13.082031 11.921875 -10.953125 13.484375 -9.390625 C 15.054688 -7.828125 17.035156 -7.046875 19.421875 -7.046875 C 22.546875 -7.046875 24.910156 -8.488281 26.515625 -11.375 L 33.625 -7.515625 C 32.488281 -5.003906 30.675781 -3.046875 28.1875 -1.640625 C 25.707031 -0.234375 22.804688 0.46875 19.484375 0.46875 Z M 19.484375 0.46875 "/></g></g></g><g fill="#ffffff" fill-opacity="1"><g transform="translate(216.624536, 57.956972)"><g><path d="M 35.140625 -15.671875 C 35.140625 -15.546875 35.082031 -14.722656 34.96875 -13.203125 L 11.09375 -13.203125 C 11.519531 -11.242188 12.535156 -9.695312 14.140625 -8.5625 C 15.742188 -7.425781 17.738281 -6.859375 20.125 -6.859375 C 21.769531 -6.859375 23.226562 -7.101562 24.5 -7.59375 C 25.769531 -8.082031 26.953125 -8.859375 28.046875 -9.921875 L 32.921875 -4.640625 C 29.941406 -1.234375 25.597656 0.46875 19.890625 0.46875 C 16.328125 0.46875 13.175781 -0.222656 10.4375 -1.609375 C 7.707031 -3.003906 5.597656 -4.929688 4.109375 -7.390625 C 2.617188 -9.859375 1.875 -12.65625 1.875 -15.78125 C 1.875 -18.875 2.609375 -21.660156 4.078125 -24.140625 C 5.546875 -26.628906 7.5625 -28.566406 10.125 -29.953125 C 12.6875 -31.335938 15.550781 -32.03125 18.71875 -32.03125 C 21.800781 -32.03125 24.59375 -31.363281 27.09375 -30.03125 C 29.601562 -28.707031 31.570312 -26.800781 33 -24.3125 C 34.425781 -21.832031 35.140625 -18.953125 35.140625 -15.671875 Z M 18.78125 -25.109375 C 16.707031 -25.109375 14.960938 -24.519531 13.546875 -23.34375 C 12.140625 -22.175781 11.28125 -20.578125 10.96875 -18.546875 L 26.515625 -18.546875 C 26.203125 -20.535156 25.34375 -22.125 23.9375 -23.3125 C 22.53125 -24.507812 20.8125 -25.109375 18.78125 -25.109375 Z M 18.78125 -25.109375 "/></g></g></g><g fill="#ffffff" fill-opacity="1"><g transform="translate(253.639606, 57.956972)"><g><path d="M 23.40625 -32.03125 C 27.320312 -32.03125 30.484375 -30.859375 32.890625 -28.515625 C 35.296875 -26.171875 36.5 -22.691406 36.5 -18.078125 L 36.5 0 L 27.34375 0 L 27.34375 -16.65625 C 27.34375 -19.164062 26.796875 -21.035156 25.703125 -22.265625 C 24.609375 -23.492188 23.023438 -24.109375 20.953125 -24.109375 C 18.640625 -24.109375 16.796875 -23.394531 15.421875 -21.96875 C 14.054688 -20.539062 13.375 -18.421875 13.375 -15.609375 L 13.375 0 L 4.21875 0 L 4.21875 -31.5625 L 12.96875 -31.5625 L 12.96875 -27.875 C 14.175781 -29.195312 15.679688 -30.21875 17.484375 -30.9375 C 19.285156 -31.664062 21.257812 -32.03125 23.40625 -32.03125 Z M 23.40625 -32.03125 "/></g></g></g><g fill="#ffffff" fill-opacity="1"><g transform="translate(294.526344, 57.956972)"><g><path d="M 35.140625 -15.671875 C 35.140625 -15.546875 35.082031 -14.722656 34.96875 -13.203125 L 11.09375 -13.203125 C 11.519531 -11.242188 12.535156 -9.695312 14.140625 -8.5625 C 15.742188 -7.425781 17.738281 -6.859375 20.125 -6.859375 C 21.769531 -6.859375 23.226562 -7.101562 24.5 -7.59375 C 25.769531 -8.082031 26.953125 -8.859375 28.046875 -9.921875 L 32.921875 -4.640625 C 29.941406 -1.234375 25.597656 0.46875 19.890625 0.46875 C 16.328125 0.46875 13.175781 -0.222656 10.4375 -1.609375 C 7.707031 -3.003906 5.597656 -4.929688 4.109375 -7.390625 C 2.617188 -9.859375 1.875 -12.65625 1.875 -15.78125 C 1.875 -18.875 2.609375 -21.660156 4.078125 -24.140625 C 5.546875 -26.628906 7.5625 -28.566406 10.125 -29.953125 C 12.6875 -31.335938 15.550781 -32.03125 18.71875 -32.03125 C 21.800781 -32.03125 24.59375 -31.363281 27.09375 -30.03125 C 29.601562 -28.707031 31.570312 -26.800781 33 -24.3125 C 34.425781 -21.832031 35.140625 -18.953125 35.140625 -15.671875 Z M 18.78125 -25.109375 C 16.707031 -25.109375 14.960938 -24.519531 13.546875 -23.34375 C 12.140625 -22.175781 11.28125 -20.578125 10.96875 -18.546875 L 26.515625 -18.546875 C 26.203125 -20.535156 25.34375 -22.125 23.9375 -23.3125 C 22.53125 -24.507812 20.8125 -25.109375 18.78125 -25.109375 Z M 18.78125 -25.109375 "/></g></g></g><g fill="#ffffff" fill-opacity="1"><g transform="translate(331.541388, 57.956972)"><g><path d="M 4.21875 -31.5625 L 13.375 -31.5625 L 13.375 0 L 4.21875 0 Z M 8.796875 -35.96875 C 7.117188 -35.96875 5.75 -36.457031 4.6875 -37.4375 C 3.632812 -38.414062 3.109375 -39.628906 3.109375 -41.078125 C 3.109375 -42.515625 3.632812 -43.722656 4.6875 -44.703125 C 5.75 -45.679688 7.117188 -46.171875 8.796875 -46.171875 C 10.484375 -46.171875 11.851562 -45.703125 12.90625 -44.765625 C 13.96875 -43.828125 14.5 -42.65625 14.5 -41.25 C 14.5 -39.71875 13.96875 -38.453125 12.90625 -37.453125 C 11.851562 -36.460938 10.484375 -35.96875 8.796875 -35.96875 Z M 8.796875 -35.96875 "/></g></g></g><g fill="#ffffff" fill-opacity="1"><g transform="translate(349.198376, 57.956972)"><g><path d="M 12.96875 -27.40625 C 14.0625 -28.925781 15.535156 -30.078125 17.390625 -30.859375 C 19.253906 -31.640625 21.398438 -32.03125 23.828125 -32.03125 L 23.828125 -23.59375 C 22.804688 -23.664062 22.117188 -23.703125 21.765625 -23.703125 C 19.148438 -23.703125 17.097656 -22.96875 15.609375 -21.5 C 14.117188 -20.03125 13.375 -17.832031 13.375 -14.90625 L 13.375 0 L 4.21875 0 L 4.21875 -31.5625 L 12.96875 -31.5625 Z M 12.96875 -27.40625 "/></g></g></g><g fill="#ffffff" fill-opacity="1"><g transform="translate(373.953243, 57.956972)"><g><path d="M 19.25 0.46875 C 15.914062 0.46875 12.929688 -0.222656 10.296875 -1.609375 C 7.660156 -3.003906 5.597656 -4.929688 4.109375 -7.390625 C 2.617188 -9.859375 1.875 -12.65625 1.875 -15.78125 C 1.875 -18.90625 2.617188 -21.703125 4.109375 -24.171875 C 5.597656 -26.640625 7.660156 -28.566406 10.296875 -29.953125 C 12.929688 -31.335938 15.914062 -32.03125 19.25 -32.03125 C 22.570312 -32.03125 25.539062 -31.335938 28.15625 -29.953125 C 30.78125 -28.566406 32.832031 -26.640625 34.3125 -24.171875 C 35.800781 -21.703125 36.546875 -18.90625 36.546875 -15.78125 C 36.546875 -12.65625 35.800781 -9.859375 34.3125 -7.390625 C 32.832031 -4.929688 30.78125 -3.003906 28.15625 -1.609375 C 25.539062 -0.222656 22.570312 0.46875 19.25 0.46875 Z M 19.25 -7.046875 C 21.59375 -7.046875 23.515625 -7.835938 25.015625 -9.421875 C 26.523438 -11.003906 27.28125 -13.125 27.28125 -15.78125 C 27.28125 -18.4375 26.523438 -20.554688 25.015625 -22.140625 C 23.515625 -23.734375 21.59375 -24.53125 19.25 -24.53125 C 16.894531 -24.53125 14.953125 -23.734375 13.421875 -22.140625 C 11.898438 -20.554688 11.140625 -18.4375 11.140625 -15.78125 C 11.140625 -13.125 11.898438 -11.003906 13.421875 -9.421875 C 14.953125 -7.835938 16.894531 -7.046875 19.25 -7.046875 Z M 19.25 -7.046875 "/></g></g></g><g fill="#ffffff" fill-opacity="1"><g transform="translate(412.376185, 57.956972)"><g/></g></g><g fill="#ffffff" fill-opacity="1"><g transform="translate(428.981344, 57.956972)"><g><path d="M 6.6875 -41.078125 L 23.40625 -41.078125 C 27.75 -41.078125 31.582031 -40.203125 34.90625 -38.453125 C 38.226562 -36.710938 40.804688 -34.285156 42.640625 -31.171875 C 44.484375 -28.066406 45.40625 -24.519531 45.40625 -20.53125 C 45.40625 -16.539062 44.484375 -12.988281 42.640625 -9.875 C 40.804688 -6.769531 38.226562 -4.347656 34.90625 -2.609375 C 31.582031 -0.867188 27.75 0 23.40625 0 L 6.6875 0 Z M 23.171875 -3.75 C 26.773438 -3.75 29.925781 -4.460938 32.625 -5.890625 C 35.320312 -7.316406 37.410156 -9.289062 38.890625 -11.8125 C 40.378906 -14.34375 41.125 -17.25 41.125 -20.53125 C 41.125 -23.820312 40.378906 -26.726562 38.890625 -29.25 C 37.410156 -31.769531 35.320312 -33.742188 32.625 -35.171875 C 29.925781 -36.597656 26.773438 -37.3125 23.171875 -37.3125 L 11.03125 -37.3125 L 11.03125 -3.75 Z M 23.171875 -3.75 "/></g></g></g><g fill="#ffffff" fill-opacity="1"><g transform="translate(477.435316, 57.956972)"><g><path d="M 5.8125 -30.859375 L 9.96875 -30.859375 L 9.96875 0 L 5.8125 0 Z M 7.90625 -37.609375 C 7.050781 -37.609375 6.328125 -37.898438 5.734375 -38.484375 C 5.148438 -39.078125 4.859375 -39.78125 4.859375 -40.59375 C 4.859375 -41.382812 5.148438 -42.070312 5.734375 -42.65625 C 6.328125 -43.238281 7.050781 -43.53125 7.90625 -43.53125 C 8.769531 -43.53125 9.492188 -43.242188 10.078125 -42.671875 C 10.671875 -42.109375 10.96875 -41.4375 10.96875 -40.65625 C 10.96875 -39.800781 10.671875 -39.078125 10.078125 -38.484375 C 9.492188 -37.898438 8.769531 -37.609375 7.90625 -37.609375 Z M 7.90625 -37.609375 "/></g></g></g><g fill="#ffffff" fill-opacity="1"><g transform="translate(493.215118, 57.956972)"><g><path d="M 34.375 -30.859375 L 34.375 -3.75 C 34.375 1.488281 33.09375 5.367188 30.53125 7.890625 C 27.976562 10.410156 24.117188 11.671875 18.953125 11.671875 C 16.097656 11.671875 13.390625 11.25 10.828125 10.40625 C 8.265625 9.570312 6.179688 8.410156 4.578125 6.921875 L 6.6875 3.75 C 8.175781 5.082031 9.984375 6.117188 12.109375 6.859375 C 14.242188 7.609375 16.484375 7.984375 18.828125 7.984375 C 22.742188 7.984375 25.617188 7.070312 27.453125 5.25 C 29.296875 3.425781 30.21875 0.597656 30.21875 -3.234375 L 30.21875 -7.15625 C 28.925781 -5.195312 27.234375 -3.707031 25.140625 -2.6875 C 23.046875 -1.675781 20.726562 -1.171875 18.1875 -1.171875 C 15.289062 -1.171875 12.660156 -1.804688 10.296875 -3.078125 C 7.929688 -4.347656 6.070312 -6.128906 4.71875 -8.421875 C 3.375 -10.710938 2.703125 -13.300781 2.703125 -16.1875 C 2.703125 -19.082031 3.375 -21.664062 4.71875 -23.9375 C 6.070312 -26.207031 7.921875 -27.96875 10.265625 -29.21875 C 12.609375 -30.46875 15.25 -31.09375 18.1875 -31.09375 C 20.8125 -31.09375 23.175781 -30.5625 25.28125 -29.5 C 27.394531 -28.445312 29.097656 -26.925781 30.390625 -24.9375 L 30.390625 -30.859375 Z M 18.59375 -4.875 C 20.820312 -4.875 22.835938 -5.351562 24.640625 -6.3125 C 26.441406 -7.269531 27.835938 -8.609375 28.828125 -10.328125 C 29.828125 -12.046875 30.328125 -14 30.328125 -16.1875 C 30.328125 -18.382812 29.828125 -20.332031 28.828125 -22.03125 C 27.835938 -23.726562 26.453125 -25.054688 24.671875 -26.015625 C 22.890625 -26.972656 20.863281 -27.453125 18.59375 -27.453125 C 16.363281 -27.453125 14.359375 -26.984375 12.578125 -26.046875 C 10.804688 -25.109375 9.421875 -23.78125 8.421875 -22.0625 C 7.421875 -20.34375 6.921875 -18.382812 6.921875 -16.1875 C 6.921875 -14 7.421875 -12.046875 8.421875 -10.328125 C 9.421875 -8.609375 10.804688 -7.269531 12.578125 -6.3125 C 14.359375 -5.351562 16.363281 -4.875 18.59375 -4.875 Z M 18.59375 -4.875 "/></g></g></g><g fill="#ffffff" fill-opacity="1"><g transform="translate(533.456549, 57.956972)"><g><path d="M 5.8125 -30.859375 L 9.96875 -30.859375 L 9.96875 0 L 5.8125 0 Z M 7.90625 -37.609375 C 7.050781 -37.609375 6.328125 -37.898438 5.734375 -38.484375 C 5.148438 -39.078125 4.859375 -39.78125 4.859375 -40.59375 C 4.859375 -41.382812 5.148438 -42.070312 5.734375 -42.65625 C 6.328125 -43.238281 7.050781 -43.53125 7.90625 -43.53125 C 8.769531 -43.53125 9.492188 -43.242188 10.078125 -42.671875 C 10.671875 -42.109375 10.96875 -41.4375 10.96875 -40.65625 C 10.96875 -39.800781 10.671875 -39.078125 10.078125 -38.484375 C 9.492188 -37.898438 8.769531 -37.609375 7.90625 -37.609375 Z M 7.90625 -37.609375 "/></g></g></g><g fill="#ffffff" fill-opacity="1"><g transform="translate(549.236351, 57.956972)"><g><path d="M 22.0625 -1.875 C 21.28125 -1.175781 20.3125 -0.640625 19.15625 -0.265625 C 18 0.109375 16.796875 0.296875 15.546875 0.296875 C 12.648438 0.296875 10.421875 -0.484375 8.859375 -2.046875 C 7.296875 -3.617188 6.515625 -5.832031 6.515625 -8.6875 L 6.515625 -27.34375 L 1 -27.34375 L 1 -30.859375 L 6.515625 -30.859375 L 6.515625 -37.609375 L 10.671875 -37.609375 L 10.671875 -30.859375 L 20.0625 -30.859375 L 20.0625 -27.34375 L 10.671875 -27.34375 L 10.671875 -8.921875 C 10.671875 -7.078125 11.128906 -5.675781 12.046875 -4.71875 C 12.972656 -3.757812 14.296875 -3.28125 16.015625 -3.28125 C 16.878906 -3.28125 17.710938 -3.414062 18.515625 -3.6875 C 19.316406 -3.96875 20.007812 -4.363281 20.59375 -4.875 Z M 22.0625 -1.875 "/></g></g></g><g fill="#ffffff" fill-opacity="1"><g transform="translate(573.052713, 57.956972)"><g><path d="M 16.609375 -31.09375 C 20.628906 -31.09375 23.710938 -30.082031 25.859375 -28.0625 C 28.015625 -26.050781 29.09375 -23.070312 29.09375 -19.125 L 29.09375 0 L 25.109375 0 L 25.109375 -4.8125 C 24.171875 -3.207031 22.789062 -1.953125 20.96875 -1.046875 C 19.15625 -0.148438 16.992188 0.296875 14.484375 0.296875 C 11.046875 0.296875 8.3125 -0.523438 6.28125 -2.171875 C 4.25 -3.816406 3.234375 -5.988281 3.234375 -8.6875 C 3.234375 -11.300781 4.179688 -13.410156 6.078125 -15.015625 C 7.972656 -16.617188 10.992188 -17.421875 15.140625 -17.421875 L 24.9375 -17.421875 L 24.9375 -19.296875 C 24.9375 -21.960938 24.191406 -23.988281 22.703125 -25.375 C 21.210938 -26.757812 19.039062 -27.453125 16.1875 -27.453125 C 14.238281 -27.453125 12.363281 -27.128906 10.5625 -26.484375 C 8.757812 -25.835938 7.210938 -24.953125 5.921875 -23.828125 L 4.046875 -26.9375 C 5.609375 -28.257812 7.484375 -29.28125 9.671875 -30 C 11.867188 -30.726562 14.179688 -31.09375 16.609375 -31.09375 Z M 15.140625 -3 C 17.484375 -3 19.492188 -3.535156 21.171875 -4.609375 C 22.859375 -5.679688 24.113281 -7.234375 24.9375 -9.265625 L 24.9375 -14.3125 L 15.25 -14.3125 C 9.96875 -14.3125 7.328125 -12.472656 7.328125 -8.796875 C 7.328125 -7.003906 8.007812 -5.585938 9.375 -4.546875 C 10.75 -3.515625 12.671875 -3 15.140625 -3 Z M 15.140625 -3 "/></g></g></g><g fill="#ffffff" fill-opacity="1"><g transform="translate(607.662684, 57.956972)"><g><path d="M 5.8125 -43.53125 L 9.96875 -43.53125 L 9.96875 0 L 5.8125 0 Z M 5.8125 -43.53125 "/></g></g></g></g></g></g></g></g></svg>