<svg id="Camada_1" xmlns="http://www.w3.org/2000/svg" viewBox="0 0 1315.2 186.2" fill="#ffffff"><path d="M268.1 67.3c-15.1-7.6-33.7-8.8-46.2-3.1v43.4H298c-4.5-23-18.6-34.6-29.9-40.3zM332.8 147.8v-3.5c0-8.4-3.2-16.2-9-21.9-5.7-5.6-13.6-8.7-22.1-8.8h-.6H222v65l80.2-.2c16.9 0 30.6-13.7 30.6-30.6zM216 62.4c-.1-8.7-6.6-23.8-18.9-35.8-8.9-8.7-24.2-19.1-46.2-19.1h-5.4v100.2H216V62.4zM63.3 178.7h76.2v-39.2H12.2c6 22.5 26.6 39.2 51.1 39.2zM139.5 7.7c-36.3 2.3-61.2 30-67.7 57.2h67.7V7.7zM139.5 70.9H61.8C33 71 10.4 94.4 10.4 124.1v1.7c0 2.6.2 5.2.6 7.7.2 0 .4-.1.5-.1h128V70.9zM145.5 113.7H216v65h-70.5z"/><g><path d="M454.6 52.5c.6.6 1.2 1.2 1.2 1.8 0 .3-.3.9-.6 1.5l-.6.6c-.3.3-.6.6-.9 1.2l-.9.9c-.3.3-.6.6-.9.6h-.3-.6c-.3 0-.6-.3-.9-.3-4-3.1-8-5.2-12.6-7.1-4.3-1.5-9.2-2.5-14.1-2.5-4 0-8 .6-12 1.5-3.7.9-7.4 2.5-10.8 4.6-3.4 1.8-6.5 4.3-8.9 7.1-2.8 2.8-4.9 5.5-6.8 8.9-1.8 3.4-3.4 6.8-4.3 10.5s-1.5 7.7-1.5 11.4c0 4 .6 8 1.5 11.7.9 3.7 2.5 7.1 4.6 10.5 1.8 3.4 4.3 6.2 7.1 8.9 2.8 2.8 5.5 4.9 8.9 6.8 3.4 1.8 6.8 3.4 10.5 4.3 3.7.9 7.4 1.5 11.4 1.5 9.2 0 18.1-3.1 26.8-9.2l1.5-.9c.3-.3.9-.3 1.2-.3.3 0 .6.3 1.2.6l1.2 1.2c.3.6.6.9.9 1.5.3.6.3 1.2.3 1.5s0 .6-.3.9l-.9.9c-4.3 3.4-9.2 6.2-14.8 8-5.2 1.8-11.1 2.8-17.2 2.8-7.1 0-13.8-1.2-20-4-6.2-2.8-11.7-6.5-16.3-11.1-4.6-4.6-8.3-10.1-11.1-16.3-2.8-6.2-4-12.9-4-20 0-4.6.6-9.2 1.8-13.5 1.2-4.3 3.1-8.3 5.2-12.3 2.2-3.7 4.9-7.4 8-10.5s6.5-5.8 10.5-8c3.7-2.2 8-4 12.3-5.2 4.3-1.2 8.9-1.8 13.5-1.8 6.2 0 11.7.9 16.9 3.1 5.2 2.1 10.5 4.8 14.8 8.2zM460.7 93.1c0-4.6.6-9.2 1.8-13.5 1.2-4.3 3.1-8.6 5.2-12.3 2.2-3.7 4.9-7.4 8-10.5s6.5-5.8 10.5-8c3.7-2.2 8-4 12.3-5.2 4.3-1.2 8.9-1.8 13.5-1.8s9.2.6 13.5 1.8c4.3 1.2 8.6 3.1 12.3 5.2 3.7 2.2 7.4 4.9 10.5 8 3.1 3.1 5.8 6.5 8 10.5 2.2 3.7 4 8 5.2 12.3 1.2 4.3 1.8 8.9 1.8 13.5s-.6 9.2-1.8 13.5c-1.2 4.3-3.1 8.6-5.2 12.3s-4.9 7.4-8 10.5c-3.1 3.1-6.5 5.8-10.5 8-3.7 2.2-8 4-12.3 5.2-4.3 1.2-8.9 1.8-13.5 1.8s-9.2-.6-13.5-1.8c-4.3-1.2-8.6-3.1-12.3-5.2-3.7-2.2-7.4-4.9-10.5-8-3.1-3.1-5.8-6.5-8-10.5-2.2-3.7-4-8-5.2-12.3-1.2-4.3-1.8-8.9-1.8-13.5zm7.4 0c0 6.2 1.2 11.7 3.4 16.9 2.2 5.2 5.5 9.8 9.5 13.8s8.6 7.1 13.8 9.5c5.2 2.2 11.1 3.4 16.9 3.4 4 0 8-.6 11.7-1.5 3.7-.9 7.4-2.5 10.5-4.3 3.4-1.8 6.2-4.3 8.9-6.8 2.8-2.8 4.9-5.5 6.8-8.9 1.8-3.4 3.4-6.8 4.3-10.5.9-3.7 1.5-7.7 1.5-11.7 0-6.2-1.2-11.7-3.4-16.9-2.5-5.2-5.5-10.1-9.5-13.8-4-4-8.6-7.1-13.8-9.5s-11.1-3.4-16.9-3.4c-4 0-8 .6-11.7 1.5-3.7.9-7.1 2.5-10.5 4.3-3.4 1.8-6.2 4.3-8.9 6.8-2.8 2.8-4.9 5.5-6.8 8.9-1.8 3.4-3.4 6.8-4.3 10.5-.9 3.7-1.5 7.7-1.5 11.7zM655.1 80.5c0 3.1-.3 6.2-1.2 9.2-.6 3.1-1.8 5.8-3.4 8.6-1.5 2.8-3.4 5.2-5.5 7.7-2.2 2.5-4.6 4.3-7.4 6.2l12.9 27.4v1.2c0 .6-.3.9-.6 1.2-.3.3-.9.6-1.5.6h-4c-.9 0-1.5-.6-1.8-1.5l-12.3-25.8c-4.3 1.5-8.9 2.5-14.5 2.5H588v22.1c0 1.8-.9 2.5-2.8 2.5h-2.5c-1.8 0-2.5-.9-2.5-2.5v-95c0-.6.3-1.5.6-1.8.6-.6.9-.9 1.5-.9h32.9c5.8 0 11.4.9 16 3.1 4.9 2.2 8.9 4.9 12.3 8.6 3.4 3.7 5.8 7.7 7.7 12 2.9 5.1 3.9 10 3.9 14.6zm-38.8 30.1c4.9 0 9.2-.9 13.2-2.5 3.7-1.5 7.1-4 9.8-6.8 2.8-2.8 4.6-6.2 6.2-9.5 1.5-3.7 2.2-7.4 2.2-11.1 0-3.7-.6-7.7-2.2-11.1-1.5-3.7-3.4-6.8-6.2-9.8-2.8-2.8-5.8-5.2-9.8-6.8-3.7-1.8-8.3-2.5-13.2-2.5h-27.7v60.3h27.7v-.2zM735 42.7c.6 0 1.5.3 1.8.6.6.3.6.9.6 1.8v2.5c0 .6-.3 1.5-.6 1.8-.3.6-1.2.6-1.8.6h-28.6v90.4c0 1.5-.9 2.5-2.5 2.5h-2.5c-1.5 0-2.5-.9-2.5-2.5V50h-29.5c-1.5 0-2.5-.9-2.5-2.5V45c0-1.5.9-2.5 2.5-2.5l65.6.2zM819.3 42.7c1.8 0 2.5.9 2.5 2.5v2.5c0 .6-.3 1.2-.6 1.8-.3.3-.9.6-1.8.6H759v50.4h48.6c.6 0 1.5.3 1.8.6.6.3.6.9.6 1.8v2.5c0 .6-.3 1.2-.6 1.8-.3.3-1.2.6-1.8.6H759v27.7h61.2c1.8 0 2.5.9 2.5 2.5v2.5c0 1.5-.9 2.5-2.5 2.5h-66.7c-.6 0-1.2-.3-1.5-.6-.3-.3-.6-.9-.6-1.8V44.8c0-.9.3-1.8.9-1.8.6-.3 1.2-.3 1.8-.3h65.2zM917.7 52.5c.6.6 1.2 1.2 1.2 1.8 0 .3-.3.9-.6 1.5l-.6.6c-.3.3-.6.6-.9 1.2l-.9.9c-.3.3-.6.6-.9.6h-.3-.6s-.7-.1-1.1-.1c-4-3.1-8-5.2-12.6-7.1-4.3-1.5-9.2-2.5-14.1-2.5-4 0-8 .6-12 1.5-3.7.9-7.4 2.5-10.8 4.6-3.4 1.8-6.5 4.3-8.9 7.1-2.8 2.8-4.9 5.5-6.8 8.9-1.8 3.4-3.4 6.8-4.3 10.5-.9 3.7-1.5 7.7-1.5 11.4 0 4 .6 8 1.5 11.7.9 3.7 2.5 7.1 4.6 10.5 1.8 3.4 4.3 6.2 7.1 8.9 2.8 2.8 5.5 4.9 8.9 6.8 3.4 1.8 6.8 3.4 10.5 4.3 3.7.9 7.4 1.5 11.4 1.5 9.2 0 18.1-3.1 26.8-9.2l1.5-.9c.3-.3.9-.3 1.2-.3.3 0 .6.3 1.2.6l1.2 1.2c.3.6.6.9.9 1.5.3.6.3 1.2.3 1.5s0 .6-.3.9l-.9.9c-4.3 3.4-9.2 6.2-14.8 8-5.2 1.8-11.1 2.8-17.2 2.8-7.1 0-13.8-1.2-20-4-6.2-2.8-11.7-6.5-16.3-11.1-4.6-4.6-8.3-10.1-11.1-16.3-2.8-6.2-4-12.9-4-20 0-4.6.6-9.2 1.8-13.5 1.2-4.3 3.1-8.3 5.2-12.3 2.2-3.7 4.9-7.4 8-10.5s6.5-5.8 10.5-8c3.7-2.2 8-4 12.3-5.2 4.3-1.2 8.9-1.8 13.5-1.8 6.2 0 11.7.9 16.9 3.1 5.4 1.9 10.3 4.6 15 8zM992.1 135.5c.6 0 1.2.3 1.8.6.3.3.6.9.6 1.8v2.5c0 .6-.3 1.2-.6 1.8-.3.3-.9.6-1.8.6h-55c-.6 0-1.2-.3-1.8-.6-.3-.3-.6-.9-.6-1.8V45.1c0-.6.3-1.2.6-1.8.3-.3 1.2-.6 1.8-.6h2.5c.6 0 1.2.3 1.8.6.3.3.6.9.6 1.8v90.4h50.1zM1000.4 93.1c0-4.6.6-9.2 1.8-13.5 1.2-4.3 3.1-8.6 5.2-12.3 2.2-3.7 4.9-7.4 8-10.5s6.5-5.8 10.5-8c3.7-2.2 8-4 12.3-5.2s8.9-1.8 13.5-1.8 9.2.6 13.5 1.8c4.3 1.2 8.6 3.1 12.3 5.2 3.7 2.2 7.4 4.9 10.5 8s5.8 6.5 8 10.5c2.2 3.7 4 8 5.2 12.3 1.2 4.3 1.8 8.9 1.8 13.5s-.6 9.2-1.8 13.5c-1.2 4.3-3.1 8.6-5.2 12.3s-4.9 7.4-8 10.5c-3.1 3.1-6.5 5.8-10.5 8-3.7 2.2-8 4-12.3 5.2-4.3 1.2-8.9 1.8-13.5 1.8s-9.2-.6-13.5-1.8c-4.3-1.2-8.6-3.1-12.3-5.2-3.7-2.2-7.4-4.9-10.5-8-3.1-3.1-5.8-6.5-8-10.5-2.2-3.7-4-8-5.2-12.3-1.2-4.3-1.8-8.9-1.8-13.5zm7.7 0c0 6.2 1.2 11.7 3.4 16.9 2.2 5.2 5.5 9.8 9.5 13.8s8.6 7.1 13.8 9.5c5.2 2.2 11.1 3.4 16.9 3.4 4 0 8-.6 11.7-1.5 3.7-.9 7.4-2.5 10.5-4.3 3.4-1.8 6.2-4.3 8.9-6.8 2.8-2.8 4.9-5.5 6.8-8.9 1.8-3.4 3.4-6.8 4.3-10.5.9-3.7 1.5-7.7 1.5-11.7 0-6.2-1.2-11.7-3.4-16.9-2.5-5.2-5.5-10.1-9.5-13.8-4-4-8.6-7.1-13.8-9.5-5.2-2.5-11.1-3.4-16.9-3.4-4 0-8 .6-11.7 1.5-3.7.9-7.1 2.5-10.5 4.3-3.4 1.8-6.2 4.3-8.9 6.8-2.8 2.8-4.9 5.5-6.8 8.9-1.8 3.4-3.4 6.8-4.3 10.5-1.2 3.7-1.5 7.7-1.5 11.7zM1124.9 102.9c0 4.9.9 9.2 2.5 13.5 1.5 4.3 4 7.7 7.1 11.1 3.1 3.1 6.5 5.5 10.8 7.4 4 1.8 8.6 2.8 13.5 2.8s9.5-.9 13.5-2.8c4-1.8 7.7-4.3 10.8-7.4 3.1-3.1 5.2-6.8 7.1-11.1 1.5-4.3 2.5-8.6 2.5-13.5V45.1c0-.6.3-1.2.6-1.8.6-.3 1.2-.6 1.8-.6h2.2c.6 0 1.5.3 1.8.6.6.3.9.9.9 1.8v58.7c0 5.8-1.2 11.4-3.4 16.3s-5.2 9.2-8.9 12.9c-3.7 3.7-8 6.5-13.2 8.6-4.9 2.2-10.5 3.1-16 3.1-3.7 0-7.4-.6-11.1-1.5-3.4-.9-6.8-2.5-9.8-4.3-3.1-1.8-5.8-4-8.3-6.5-2.5-2.5-4.6-5.2-6.5-8.3s-3.1-6.5-4.3-9.8c-.9-3.4-1.5-7.1-1.5-10.8V45.1c0-.6.3-1.2.6-1.8.3-.6.9-.6 1.8-.6h2.5c.6 0 1.2.3 1.8.6.6.3.6.9.6 1.8v57.8h.6zM1220.2 45.1c0-.6.3-1.2.6-1.8.3-.3.9-.6 1.5-.6h32.6c4.6 0 9.2.6 13.2 1.8 4.3 1.2 8.3 2.8 12 5.2 3.7 2.2 7.1 4.9 10.1 7.7 3.1 3.1 5.5 6.5 7.7 10.1 2.2 3.7 3.7 7.7 4.9 12s1.8 8.6 1.8 13.2-.6 9.2-1.8 13.2c-1.2 4.3-2.8 8.3-4.9 12-2.2 3.7-4.9 7.1-8 10.1-3.1 3.1-6.5 5.5-10.1 7.7-3.7 2.2-7.7 3.7-12 4.9-4.3 1.2-8.9 1.8-13.5 1.8h-31.7c-.6 0-1.2-.3-1.8-.6-.6-.3-.9-.9-.9-1.5V45.1h.3zm34.2 90.7c4 0 8-.6 11.7-1.5s7.1-2.5 10.5-4.3c3.1-1.8 6.2-4.3 8.6-6.8 2.8-2.8 4.9-5.5 6.8-8.6 1.8-3.1 3.4-6.8 4.3-10.1.9-3.7 1.5-7.4 1.5-11.4 0-6.2-1.2-11.7-3.4-16.9s-5.5-9.8-9.2-13.5c-4-3.7-8.6-6.8-13.8-8.9-5.2-2.2-10.8-3.1-16.6-3.1H1228v85.8h26.4v-.7z"/></g></svg>