<?xml version="1.0" standalone="no"?>
<!DOCTYPE svg PUBLIC "-//W3C//DTD SVG 20010904//EN"
 "http://www.w3.org/TR/2001/REC-SVG-20010904/DTD/svg10.dtd">
<svg version="1.0" xmlns="http://www.w3.org/2000/svg"
 width="1080.000000pt" height="1080.000000pt" viewBox="0 0 1080.000000 1080.000000"
 preserveAspectRatio="xMidYMid meet">

<g transform="translate(0.000000,1080.000000) scale(0.100000,-0.100000)"
fill="#000000" stroke="none">
<path d="M0 5400 l0 -5400 5400 0 5400 0 0 5400 0 5400 -5400 0 -5400 0 0
-5400z m10110 4197 c219 -74 363 -213 437 -422 l28 -80 3 -2853 c2 -3156 7
-2924 -63 -3066 -66 -133 -177 -242 -312 -304 -143 -66 6 -62 -2345 -62
l-2138 0 0 -485 0 -484 843 -3 c953 -4 891 2 987 -85 69 -62 102 -129 108
-219 9 -133 -51 -240 -169 -304 l-64 -35 -2030 0 -2030 0 -57 28 c-62 30 -115
83 -150 149 -20 37 -23 58 -23 143 0 85 3 106 23 143 29 54 90 115 140 141 75
38 142 41 970 41 l802 0 0 485 0 485 -2135 0 c-2367 0 -2216 -4 -2360 65 -175
85 -297 234 -345 420 -20 77 -20 109 -20 2924 0 3146 -5 2890 64 3036 41 88
100 162 174 221 70 55 178 108 252 123 30 6 64 13 75 15 11 2 2104 3 4650 2
4474 -1 4632 -2 4685 -19z"/>
<path d="M850 6215 l0 -2755 4545 0 4545 0 0 2755 0 2755 -4545 0 -4545 0 0
-2755z m6418 1931 c43 -23 83 -71 93 -112 13 -57 12 -3629 -1 -3676 -13 -45
-51 -93 -94 -116 -29 -16 -152 -17 -1876 -17 -1730 0 -1847 1 -1877 17 -41 23
-70 61 -83 108 -7 25 -9 654 -8 1866 l3 1829 23 38 c13 21 40 46 60 57 36 19
79 19 1885 20 1572 0 1852 -2 1875 -14z"/>
<path d="M3750 7100 l0 -740 1645 0 1645 0 -2 738 -3 737 -1642 3 -1643 2 0
-740z m2181 137 c107 -71 97 -231 -17 -287 -39 -19 -62 -20 -527 -20 -534 0
-530 0 -580 59 -52 62 -55 144 -7 211 43 60 37 59 591 60 l506 0 34 -23z"/>
<path d="M3750 5285 l0 -735 1645 0 1645 0 0 735 0 735 -1645 0 -1645 0 0
-735z m2174 152 c85 -48 107 -154 52 -238 -47 -70 -37 -69 -586 -69 -537 0
-533 0 -583 59 -54 65 -55 147 0 212 50 59 43 58 583 58 494 1 495 1 534 -22z"/>
</g>
</svg>
