<svg id="Camada_1" xmlns="http://www.w3.org/2000/svg" viewBox="0 0 664 166"><style>.st0{fill:#9619d1}</style><path class="st0" d="M61.1 4.4h65.4c20.1 0 36.5 16.3 36.5 36.5v41.4c0 20.1-16.3 36.5-36.5 36.5H61.1c-20.1 0-36.5-16.3-36.5-36.5V40.9c0-20.2 16.3-36.5 36.5-36.5z"/><path d="M106.5 24.4H41c-20.1.1-36.4 16.3-36.4 36.5v41.4c.1 20.1 16.4 36.4 36.5 36.5h5.2v22.8S58.8 146 79 138.8h27.5c20.1 0 36.5-16.3 36.5-36.5V60.9c-.1-20.2-16.4-36.4-36.5-36.5z" fill="#f1e73a"/><path class="st0" d="M103.6 51.1H43.9c-2.7 0-4.8 2.2-4.8 4.9v15c0 2.7 2.2 4.8 4.8 4.9h59.6c2.7 0 4.8-2.2 4.9-4.9V56c0-2.8-2.1-4.9-4.8-4.9zM79.4 64.6c0 .4-.4.8-.8.8h-9.7c-.4 0-.8-.4-.8-.8v-2.4c0-.4.4-.8.8-.8h9.7c.4 0 .8.3.8.8v2.4zm24.2 15.1H43.9c-2.7 0-4.8 2.2-4.8 4.8v15c0 2.7 2.2 4.8 4.8 4.9h1l-1.7 5.8c-.1.8.5 1.6 1.4 1.6.6.1 1.2-.3 1.5-.8l2-6.6h51.5l2 6.6c.2.8 1.1 1.2 1.9 1s1.2-1.1 1-1.9l-1.7-5.8h1c2.7 0 4.8-2.2 4.9-4.9v-15c-.2-2.6-2.4-4.7-5.1-4.7zM79.4 93.3c0 .4-.4.8-.8.8h-9.7c-.4 0-.8-.3-.8-.8v-2.4c0-.4.4-.8.8-.8h9.7c.4 0 .8.4.8.8v2.4z"/><path d="M255.2 80.9v44h-16.7V84.2c0-6.6-3-10-8.6-10-4 0-8.6 3-10.7 6.9V125h-16.7V41.3h16.7v25.6h.4c4.4-4.4 10.3-6.8 16.5-6.8 12.2 0 19.1 6.8 19.1 20.8zm59.3 37.1c-4.9 4-10.9 7-22.9 7-19.7 0-29.7-11-29.7-32.6 0-20.2 11.3-32.3 29.3-32.3 15.9 0 25.1 10.1 25.1 25.3 0 3.7-.2 7.5-.8 11.2h-37.2c.2 9.8 4.6 15.3 15.3 15.3 5.1.1 10.1-2 13.7-5.6l7.2 11.7zm-35.9-32.5h22v-1.7c0-7.3-3.1-11.2-9.8-11.2-7.6.1-12 5.6-12.2 12.9zm61-44.3v62.9c0 4.6 2.1 6.2 5.2 6.2.8 0 1.6-.1 2.3-.2v13.2c-2.5 1-5.2 1.6-8 1.5-10.2 0-16.3-6-16.3-16.4V41.2h16.8zm30.8 0v62.9c0 4.6 2.1 6.2 5.2 6.2.8 0 1.6-.1 2.3-.2v13.2c-2.5 1-5.3 1.6-8 1.5-10.2 0-16.3-6-16.3-16.4V41.2h16.8zm14.2 51.6c0-19.2 8.1-32.6 28.7-32.6 21.5 0 28.3 12.8 28.3 32.2s-8.2 32.6-28.8 32.6c-21.4 0-28.2-12.9-28.2-32.2zm28.8 19.1c8.5 0 11.2-6.2 11.2-18.9 0-12.9-3.2-19.8-11.8-19.8-7.6 0-10.9 6.2-10.9 18.9-.1 13 3.1 19.8 11.5 19.8zM516 60.1c12.3 0 19.2 6.5 19.2 20.8V125h-16.7V83.9c0-7.3-3.8-9.7-8.1-9.7-4.6.1-8.6 3-10.4 7.2V125h-16.7V85.1c0-7.3-3.1-10.9-8.8-10.9-4.1 0-8.1 3.3-9.6 7.4V125h-16.7V60.1H465v7.3h.2c3.9-5 10.3-7.3 16.5-7.3 9.5 0 13.4 4 15.6 8.4h.5c3.1-4.3 9.4-8.4 18.2-8.4zm25.9 32.7c0-19.2 8.1-32.6 28.7-32.6 21.5 0 28.3 12.8 28.3 32.2s-8.2 32.6-28.8 32.6c-21.4 0-28.2-12.9-28.2-32.2zm28.8 19.1c8.5 0 11.2-6.2 11.2-18.9 0-12.9-3.2-19.8-11.8-19.8-7.6 0-10.9 6.2-10.9 18.9-.2 13 3.1 19.8 11.5 19.8zM605.6 41H622l.2 22.6.4.1c3.6-2.4 7.8-3.7 12.2-3.8 14.2 0 24.6 8.5 24.6 31.5 0 19-11.3 33.5-32.1 33.5-10.3 0-16.5-1.5-21.8-4l.1-79.9zm37.1 51.7c0-13.9-4.9-18.4-12-18.4-3.1-.1-6.2 1.1-8.4 3.3v33c2 .6 4.2.9 6.3.9 8.8.1 14.1-5.5 14.1-18.8z" fill="#fff"/></svg>
